# ProBuilder 5.2.3
# https://unity3d.com/unity/features/worldbuilding/probuilder
# 06/07/2025 05:49:18

mtllib ./2_Column.mtl
o 2_Column

g 2_Column
v -0.05 -0.053 0.1960001
v -0.044 -0.053 0.1960001
v -0.05 -0.053 -0.3
v 0.05 -0.053 -0.3
v 0.044 -0.053 0.1960001
v 0.05 -0.053 0.1960001
v -0.044 -0.053 0.2120001
v -0.044 -0.053 0.228
v -0.05 -0.053 0.2120001
v -0.05 -0.053 0.228
v 0.044 -0.053 0.2120001
v -0.044 -0.053 0.2420001
v 0.044 -0.053 0.2420001
v 0.044 -0.053 0.228
v 0.05 -0.053 0.228
v 0.05 -0.053 0.2120001
v 0.044 -0.053 0.2560001
v 0.05 -0.053 0.2560001
v 0.05 -0.053 0.2420001
v 0.044 -0.053 0.2680001
v 0.044 -0.053 0.2800001
v 0.05 -0.053 0.2680001
v 0.05 -0.053 0.2800001
v 0.044 -0.053 0.2900001
v -0.044 -0.053 0.2560001
v -0.05 -0.053 0.2560001
v -0.05 -0.053 0.2420001
v 0.05 -0.053 0.3000001
v 0.05 -0.053 0.2900001
v -0.044 -0.053 0.2680001
v -0.044 -0.053 0.2800001
v -0.05 -0.053 0.2680001
v -0.05 -0.053 0.2800001
v -0.044 -0.053 0.2900001
v -0.05 -0.053 0.3000001
v -0.05 -0.053 0.2900001
v 0.05 0.053 0.1960001
v 0.044 0.053 0.1960001
v 0.05 0.053 -0.3
v -0.05 0.053 -0.3
v -0.044 0.053 0.1960001
v -0.05 0.053 0.1960001
v 0.044 0.053 0.2120001
v 0.044 0.053 0.228
v 0.05 0.053 0.2120001
v 0.05 0.053 0.228
v 0.044 0.053 0.2420001
v 0.044 0.053 0.2560001
v 0.05 0.053 0.2420001
v 0.05 0.053 0.2560001
v 0.044 0.053 0.2680001
v 0.044 0.053 0.2800001
v -0.044 0.053 0.2120001
v 0.05 0.053 0.2800001
v 0.05 0.053 0.2680001
v 0.044 0.053 0.2900001
v -0.044 0.053 0.228
v -0.05 0.053 0.228
v -0.05 0.053 0.2120001
v 0.05 0.053 0.3000001
v 0.05 0.053 0.2900001
v -0.044 0.053 0.2420001
v -0.044 0.053 0.2560001
v -0.05 0.053 0.2420001
v -0.05 0.053 0.2560001
v -0.044 0.053 0.2680001
v -0.044 0.053 0.2900001
v -0.05 0.053 0.3000001
v -0.05 0.053 0.2900001
v -0.044 0.053 0.2800001
v -0.05 0.053 0.2800001
v -0.05 0.053 0.2680001
v 0.003 0.009999998 0.3000001
v 0.003 0.047 0.3000001
v 0.003 0.009999998 0.2850001
v 0.003 0.047 -0.3
v 0.003 -0.047 -0.3
v 0.003 -0.01 0.2850001
v 0.003 -0.047 0.3000001
v 0.003 -0.01 0.3000001
v -0.003000001 -0.01 0.3000001
v -0.003000001 -0.047 0.3000001
v -0.003000001 -0.01 0.2850001
v -0.003000001 -0.047 -0.3
v -0.003000001 0.047 -0.3
v -0.003000001 0.009999998 0.2850001
v -0.003000001 0.047 0.3000001
v -0.003000001 0.009999998 0.3000001
v 0.05 0.047 0.3000001
v -0.05 0.047 0.3000001
v -0.05 -0.047 0.228
v -0.05 -0.047 0.2120001
v -0.05 -0.047 0.2560001
v -0.05 -0.047 0.2420001
v -0.05 -0.047 0.2800001
v -0.05 -0.047 0.2680001
v -0.05 -0.047 0.1960001
v -0.05 -0.047 -0.3
v 0.05 -0.047 0.2800001
v 0.05 -0.047 0.2680001
v 0.05 -0.047 0.3000001
v 0.05 -0.047 0.2900001
v 0.05 -0.047 0.2560001
v 0.05 -0.047 0.2420001
v 0.05 -0.047 0.228
v 0.05 -0.047 0.2120001
v 0.05 -0.047 0.1960001
v 0.05 -0.047 -0.3
v 0.044 -0.047 0.2900001
v 0.044 -0.047 0.2800001
v 0.044 -0.047 0.2680001
v 0.044 -0.047 0.2560001
v 0.044 -0.047 0.2420001
v 0.044 -0.047 0.228
v 0.044 -0.047 0.2120001
v 0.044 -0.047 0.1960001
v 0.044 0.047 0.2420001
v 0.05 0.047 0.2560001
v 0.05 0.047 0.2420001
v 0.044 0.047 0.2560001
v 0.044 0.047 0.228
v 0.044 0.047 0.2680001
v 0.044 0.047 0.2120001
v 0.05 0.047 0.2120001
v 0.05 0.047 0.228
v 0.044 0.047 0.1960001
v 0.05 0.047 0.1960001
v 0.05 0.047 -0.3
v 0.044 0.047 0.2800001
v 0.05 0.047 0.2800001
v 0.05 0.047 0.2680001
v 0.044 0.047 0.2900001
v 0.05 0.047 0.2900001
v -0.05 0.047 0.2120001
v -0.05 0.047 0.228
v -0.05 0.047 0.2420001
v -0.05 0.047 0.2560001
v -0.05 0.047 0.2680001
v -0.05 0.047 0.2800001
v -0.05 0.047 -0.3
v -0.05 0.047 0.1960001
v -0.044 -0.047 0.2680001
v -0.044 -0.047 0.2800001
v -0.044 -0.047 0.2900001
v -0.044 -0.047 0.2560001
v -0.05 -0.047 0.3000001
v -0.05 -0.047 0.2900001
v -0.044 -0.047 0.2420001
v -0.044 -0.047 0.228
v -0.044 -0.047 0.2120001
v -0.044 -0.047 0.1960001
v -0.05 0.047 0.2900001
v -0.044 0.047 0.1960001
v -0.044 0.047 0.2120001
v -0.044 0.047 0.228
v -0.044 0.047 0.2420001
v -0.044 0.047 0.2560001
v -0.044 0.047 0.2680001
v -0.044 0.047 0.2800001
v -0.044 0.047 0.2900001

vt -0.05000001 0.1960001
vt -0.04400001 0.1960001
vt -0.05000001 -0.3
vt 0.04999999 -0.3
vt 0.04399999 0.1960001
vt 0.04999999 0.1960001
vt -0.04400001 0.2120001
vt -0.04400001 0.228
vt -0.05000001 0.2120001
vt -0.05000001 0.228
vt 0.04399999 0.2120001
vt -0.04400001 0.2420001
vt 0.04399999 0.2420001
vt 0.04399999 0.228
vt 0.04999999 0.228
vt 0.04999999 0.2120001
vt 0.04399999 0.2560001
vt 0.04999999 0.2560001
vt 0.04999999 0.2420001
vt 0.04399999 0.2680001
vt 0.04399999 0.2800001
vt 0.04999999 0.2680001
vt 0.04999999 0.2800001
vt 0.04399999 0.2900001
vt -0.04400001 0.2560001
vt -0.05000001 0.2560001
vt -0.05000001 0.2420001
vt 0.04999999 0.3000001
vt 0.04999999 0.2900001
vt -0.04400001 0.2680001
vt -0.04400001 0.2800001
vt -0.05000001 0.2680001
vt -0.05000001 0.2800001
vt -0.04400001 0.2900001
vt -0.05000001 0.3000001
vt -0.05000001 0.2900001
vt -0.04999999 0.1960001
vt -0.04399999 0.1960001
vt -0.04999999 -0.3
vt 0.05000001 -0.3
vt 0.04400001 0.1960001
vt 0.05000001 0.1960001
vt -0.04399999 0.2120001
vt -0.04399999 0.228
vt -0.04999999 0.2120001
vt -0.04999999 0.228
vt -0.04399999 0.2420001
vt -0.04399999 0.2560001
vt -0.04999999 0.2420001
vt -0.04999999 0.2560001
vt -0.04399999 0.2680001
vt -0.04399999 0.2800001
vt 0.04400001 0.2120001
vt -0.04999999 0.2800001
vt -0.04999999 0.2680001
vt -0.04399999 0.2900001
vt 0.04400001 0.228
vt 0.05000001 0.228
vt 0.05000001 0.2120001
vt -0.04999999 0.3000001
vt -0.04999999 0.2900001
vt 0.04400001 0.2420001
vt 0.04400001 0.2560001
vt 0.05000001 0.2420001
vt 0.05000001 0.2560001
vt 0.04400001 0.2680001
vt 0.04400001 0.2900001
vt 0.05000001 0.3000001
vt 0.05000001 0.2900001
vt 0.04400001 0.2800001
vt 0.05000001 0.2800001
vt 0.05000001 0.2680001
vt -0.3000001 0.009999968
vt -0.3000001 0.04699997
vt -0.2850001 0.009999968
vt 0.3 0.04699997
vt 0.3 -0.04700003
vt -0.2850001 -0.01000003
vt -0.3000001 -0.04700003
vt -0.3000001 -0.01000003
vt 0.3000001 -0.01000003
vt 0.2850001 -0.01000003
vt 0.2850001 0.009999968
vt 0.3000001 0.009999968
vt 0.002999991 0.04699997
vt 0.04999999 0.05299997
vt 0.04999999 0.04699997
vt -0.05000001 0.05299997
vt -0.00300001 0.04699997
vt -0.05000001 0.04699997
vt 0.002999991 0.009999968
vt -0.00300001 0.009999968
vt 0.2120001 -0.05300003
vt 0.228 -0.04700003
vt 0.228 -0.05300003
vt 0.2120001 -0.04700003
vt 0.2560001 -0.04700003
vt 0.2420001 -0.05300003
vt 0.2420001 -0.04700003
vt 0.2560001 -0.05300003
vt 0.2800001 -0.04700003
vt 0.2680001 -0.05300003
vt 0.2680001 -0.04700003
vt 0.2800001 -0.05300003
vt -0.3 -0.05300003
vt 0.1960001 -0.04700003
vt 0.1960001 -0.05300003
vt -0.2800001 -0.04700003
vt -0.2680001 -0.05300003
vt -0.2800001 -0.05300003
vt -0.2680001 -0.04700003
vt -0.2900001 -0.05300003
vt -0.2900001 -0.04700003
vt -0.2560001 -0.04700003
vt -0.2420001 -0.05300003
vt -0.2560001 -0.05300003
vt -0.2420001 -0.04700003
vt -0.228 -0.04700003
vt -0.2120001 -0.05300003
vt -0.228 -0.05300003
vt -0.2120001 -0.04700003
vt -0.1960001 -0.04700003
vt 0.3 -0.05300003
vt -0.1960001 -0.05300003
vt -0.002999991 0.3000001
vt -0.002999991 -0.3
vt 0.002999991 -0.3
vt 0.002999991 0.3000001
vt -0.2800001 0.05299997
vt -0.2680001 0.04699997
vt -0.2800001 0.04699997
vt -0.2680001 0.05299997
vt -0.2900001 0.04699997
vt -0.3000001 0.05299997
vt -0.2900001 0.05299997
vt -0.2560001 0.05299997
vt -0.2420001 0.04699997
vt -0.2560001 0.04699997
vt -0.2420001 0.05299997
vt -0.228 0.05299997
vt -0.2120001 0.04699997
vt -0.228 0.04699997
vt -0.2120001 0.05299997
vt -0.1960001 0.05299997
vt -0.1960001 0.04699997
vt 0.3 0.05299997
vt 0.2120001 0.04699997
vt 0.228 0.05299997
vt 0.228 0.04699997
vt 0.2120001 0.05299997
vt 0.2560001 0.05299997
vt 0.2420001 0.04699997
vt 0.2420001 0.05299997
vt 0.2560001 0.04699997
vt 0.2800001 0.05299997
vt 0.2680001 0.04699997
vt 0.2680001 0.05299997
vt 0.2800001 0.04699997
vt 0.1960001 0.05299997
vt 0.1960001 0.04699997
vt 0.00300001 0.3000001
vt 0.00300001 -0.3
vt 0.2900001 -0.05300003
vt 0.2900001 -0.04700003
vt 0.2900001 0.04699997
vt 0.2900001 0.05299997
vt -0.00300001 -0.3
vt -0.00300001 0.3000001
vt -0.00300001 -0.04700003
vt -0.05000001 -0.05300003
vt -0.05000001 -0.04700003
vt 0.04999999 -0.05300003
vt 0.002999991 -0.04700003
vt 0.04999999 -0.04700003
vt -0.00300001 -0.01000003
vt 0.002999991 -0.01000003
vt 0.00300001 0.04699997
vt 0.05000001 0.05299997
vt 0.05000001 0.04699997
vt -0.04999999 0.05299997
vt -0.002999991 0.04699997
vt -0.04999999 0.04699997
vt 0.00300001 -0.04700003
vt -0.002999991 -0.04700003
vt -0.04999999 -0.05300003
vt -0.04999999 -0.04700003
vt 0.05000001 -0.04700003
vt 0.05000001 -0.05300003
vt 0.04400001 0.05299997
vt 0.04400001 0.04699997
vt -0.04400001 0.04699997
vt -0.04400001 0.05299997
vt -0.04399999 0.05299997
vt -0.04399999 0.04699997
vt 0.04399999 0.04699997
vt 0.04399999 0.05299997
vt 0.04399999 -0.05300003
vt 0.04399999 -0.04700003
vt -0.04399999 -0.04700003
vt -0.04399999 -0.05300003
vt -0.04400001 -0.05300003
vt -0.04400001 -0.04700003
vt 0.04400001 -0.04700003
vt 0.04400001 -0.05300003
vt 0.002999991 0.2850001
vt -0.00300001 0.2850001
vt 0.00300001 0.2850001
vt -0.002999991 0.2850001

vn 0 -1 0
vn 0 1 0
vn 1 0 0
vn -1 0 0
vn 0 0 1
vn 0 0 -1

usemtl column_topMat
f 3/3/1 2/2/1 1/1/1
f 5/5/1 4/4/1 6/6/1
f 2/2/1 5/5/1 7/7/1
f 14/14/1 13/13/1 11/11/1
f 12/12/1 13/13/1 17/17/1
f 20/20/1 12/12/1 17/17/1
f 20/20/1 21/21/1 12/12/1
f 24/24/1 29/29/1 28/28/1
f 39/39/2 38/38/2 37/37/2
f 41/41/2 40/40/2 42/42/2
f 38/38/2 41/41/2 43/43/2
f 41/41/2 44/44/2 43/43/2
f 41/41/2 47/47/2 44/44/2
f 41/41/2 48/48/2 47/47/2
f 51/51/2 48/48/2 41/41/2
f 56/56/2 60/60/2 61/61/2
f 60/60/2 66/66/2 67/67/2
f 70/70/2 67/67/2 66/66/2
f 75/75/3 74/74/3 73/73/3
f 74/74/3 75/75/3 76/76/3
f 83/82/4 82/77/4 81/81/4
f 82/77/4 83/82/4 84/79/4
f 109/56/2 110/52/2 79/125/2
f 79/125/2 110/52/2 111/51/2
f 112/48/2 79/125/2 111/51/2
f 77/126/2 79/125/2 112/48/2
f 123/11/1 121/14/1 76/127/1
f 123/11/1 76/127/1 126/5/1
f 143/70/2 144/67/2 142/66/2
f 82/161/2 142/66/2 144/67/2
f 145/63/2 142/66/2 82/161/2
f 148/62/2 145/63/2 82/161/2
f 82/161/2 149/57/2 148/62/2
f 82/161/2 150/53/2 149/57/2
f 2/2/1 3/3/1 4/4/1
f 4/4/1 5/5/1 2/2/1
f 11/11/1 8/8/1 7/7/1
f 7/7/1 5/5/1 11/11/1
f 9/9/1 7/7/1 8/8/1
f 8/8/1 10/10/1 9/9/1
f 12/12/1 8/8/1 11/11/1
f 11/11/1 13/13/1 12/12/1
f 15/15/1 14/14/1 11/11/1
f 11/11/1 16/16/1 15/15/1
f 18/18/1 17/17/1 13/13/1
f 13/13/1 19/19/1 18/18/1
f 21/21/1 20/20/1 22/22/1
f 22/22/1 23/23/1 21/21/1
f 12/12/1 21/21/1 24/24/1
f 24/24/1 25/25/1 12/12/1
f 12/12/1 25/25/1 26/26/1
f 26/26/1 27/27/1 12/12/1
f 30/30/1 25/25/1 24/24/1
f 24/24/1 28/28/1 30/30/1
f 31/31/1 30/30/1 28/28/1
f 28/28/1 34/34/1 31/31/1
f 32/32/1 30/30/1 31/31/1
f 31/31/1 33/33/1 32/32/1
f 34/34/1 28/28/1 35/35/1
f 35/35/1 36/36/1 34/34/1
f 38/38/2 39/39/2 40/40/2
f 40/40/2 41/41/2 38/38/2
f 45/45/2 43/43/2 44/44/2
f 44/44/2 46/46/2 45/45/2
f 49/49/2 47/47/2 48/48/2
f 48/48/2 50/50/2 49/49/2
f 52/52/2 51/51/2 41/41/2
f 41/41/2 53/53/2 52/52/2
f 51/51/2 52/52/2 54/54/2
f 54/54/2 55/55/2 51/51/2
f 56/56/2 52/52/2 53/53/2
f 53/53/2 57/57/2 56/56/2
f 58/58/2 57/57/2 53/53/2
f 53/53/2 59/59/2 58/58/2
f 60/60/2 56/56/2 57/57/2
f 57/57/2 62/62/2 60/60/2
f 60/60/2 62/62/2 63/63/2
f 63/63/2 66/66/2 60/60/2
f 63/63/2 62/62/2 64/64/2
f 64/64/2 65/65/2 63/63/2
f 68/68/2 60/60/2 67/67/2
f 67/67/2 69/69/2 68/68/2
f 71/71/2 70/70/2 66/66/2
f 66/66/2 72/72/2 71/71/2
f 77/77/3 76/76/3 75/75/3
f 75/75/3 78/78/3 77/77/3
f 79/79/3 77/77/3 78/78/3
f 78/78/3 80/80/3 79/79/3
f 85/74/4 84/79/4 83/82/4
f 83/82/4 86/83/4 85/74/4
f 87/76/4 85/74/4 86/83/4
f 86/83/4 88/84/4 87/76/4
f 74/85/5 89/87/5 60/86/5
f 60/86/5 68/88/5 74/85/5
f 87/89/5 74/85/5 68/88/5
f 68/88/5 90/90/5 87/89/5
f 73/91/5 74/85/5 87/89/5
f 87/89/5 88/92/5 73/91/5
f 9/93/4 10/95/4 91/94/4
f 91/94/4 92/96/4 9/93/4
f 93/97/4 94/99/4 27/98/4
f 27/98/4 26/100/4 93/97/4
f 95/101/4 96/103/4 32/102/4
f 32/102/4 33/104/4 95/101/4
f 3/105/4 1/107/4 97/106/4
f 97/106/4 98/79/4 3/105/4
f 99/108/3 23/110/3 22/109/3
f 22/109/3 100/111/3 99/108/3
f 29/112/3 102/113/3 101/79/3
f 101/79/3 28/105/3 29/112/3
f 103/114/3 18/116/3 19/115/3
f 19/115/3 104/117/3 103/114/3
f 105/118/3 15/120/3 16/119/3
f 16/119/3 106/121/3 105/118/3
f 107/122/3 6/124/3 4/123/3
f 4/123/3 108/77/3 107/122/3
f 101/60/2 102/61/2 109/56/2
f 109/56/2 79/125/2 101/60/2
f 100/55/2 111/51/2 110/52/2
f 110/52/2 99/54/2 100/55/2
f 77/126/2 112/48/2 113/47/2
f 113/47/2 114/44/2 77/126/2
f 104/49/2 113/47/2 112/48/2
f 112/48/2 103/50/2 104/49/2
f 77/126/2 114/44/2 115/43/2
f 115/43/2 116/38/2 77/126/2
f 115/43/2 114/44/2 105/46/2
f 105/46/2 106/45/2 115/43/2
f 108/39/2 77/126/2 116/38/2
f 116/38/2 107/37/2 108/39/2
f 117/13/1 119/19/1 118/18/1
f 118/18/1 120/17/1 117/13/1
f 117/13/1 120/17/1 76/127/1
f 76/127/1 121/14/1 117/13/1
f 76/127/1 120/17/1 122/20/1
f 122/20/1 129/21/1 76/127/1
f 121/14/1 123/11/1 124/16/1
f 124/16/1 125/15/1 121/14/1
f 127/6/1 126/5/1 76/127/1
f 76/127/1 128/4/1 127/6/1
f 74/128/1 76/127/1 129/21/1
f 129/21/1 132/24/1 74/128/1
f 130/23/1 129/21/1 122/20/1
f 122/20/1 131/22/1 130/23/1
f 89/28/1 74/128/1 132/24/1
f 132/24/1 133/29/1 89/28/1
f 54/129/3 130/131/3 131/130/3
f 131/130/3 55/132/3 54/129/3
f 133/133/3 61/135/3 60/134/3
f 60/134/3 89/74/3 133/133/3
f 50/136/3 118/138/3 119/137/3
f 119/137/3 49/139/3 50/136/3
f 46/140/3 125/142/3 124/141/3
f 124/141/3 45/143/3 46/140/3
f 37/144/3 127/145/3 128/76/3
f 128/76/3 39/146/3 37/144/3
f 134/147/4 135/149/4 58/148/4
f 58/148/4 59/150/4 134/147/4
f 65/151/4 64/153/4 136/152/4
f 136/152/4 137/154/4 65/151/4
f 71/155/4 72/157/4 138/156/4
f 138/156/4 139/158/4 71/155/4
f 140/74/4 141/160/4 42/159/4
f 42/159/4 40/134/4 140/74/4
f 142/66/2 96/72/2 95/71/2
f 95/71/2 143/70/2 142/66/2
f 146/68/2 82/161/2 144/67/2
f 144/67/2 147/69/2 146/68/2
f 145/63/2 148/62/2 94/64/2
f 94/64/2 93/65/2 145/63/2
f 91/58/2 149/57/2 150/53/2
f 150/53/2 92/59/2 91/58/2
f 150/53/2 82/161/2 84/162/2
f 84/162/2 151/41/2 150/53/2
f 151/41/2 84/162/2 98/40/2
f 98/40/2 97/42/2 151/41/2
f 146/77/4 147/164/4 36/163/4
f 36/163/4 35/123/4 146/77/4
f 68/146/4 69/166/4 152/165/4
f 152/165/4 90/76/4 68/146/4
f 153/2/1 141/1/1 140/3/1
f 140/3/1 85/167/1 153/2/1
f 153/2/1 85/167/1 87/168/1
f 87/168/1 154/7/1 153/2/1
f 155/8/1 154/7/1 87/168/1
f 87/168/1 156/12/1 155/8/1
f 134/9/1 154/7/1 155/8/1
f 155/8/1 135/10/1 134/9/1
f 157/25/1 156/12/1 87/168/1
f 87/168/1 158/30/1 157/25/1
f 136/27/1 156/12/1 157/25/1
f 157/25/1 137/26/1 136/27/1
f 159/31/1 158/30/1 87/168/1
f 87/168/1 160/34/1 159/31/1
f 138/32/1 158/30/1 159/31/1
f 159/31/1 139/33/1 138/32/1
f 160/34/1 87/168/1 90/35/1
f 90/35/1 152/36/1 160/34/1
f 82/169/5 146/171/5 35/170/5
f 35/170/5 28/172/5 82/169/5
f 79/173/5 82/169/5 28/172/5
f 28/172/5 101/174/5 79/173/5
f 81/175/5 82/169/5 79/173/5
f 79/173/5 80/176/5 81/175/5
f 85/177/6 140/179/6 40/178/6
f 40/178/6 39/180/6 85/177/6
f 76/181/6 85/177/6 39/180/6
f 39/180/6 128/182/6 76/181/6
f 84/183/6 85/177/6 76/181/6
f 76/181/6 77/184/6 84/183/6
f 4/185/6 84/183/6 77/184/6
f 77/184/6 108/186/6 4/185/6
f 98/187/6 84/183/6 4/185/6
f 4/185/6 3/188/6 98/187/6
f 134/179/6 59/178/6 53/189/6
f 53/189/6 154/190/6 134/179/6
f 154/147/4 53/150/4 41/159/4
f 41/159/4 153/160/4 154/147/4
f 153/191/5 41/192/5 42/88/5
f 42/88/5 141/90/5 153/191/5
f 152/179/6 69/178/6 67/189/6
f 67/189/6 160/190/6 152/179/6
f 160/165/4 67/166/4 70/155/4
f 70/155/4 159/158/4 160/165/4
f 159/191/5 70/192/5 71/88/5
f 71/88/5 139/90/5 159/191/5
f 138/179/6 72/178/6 66/189/6
f 66/189/6 158/190/6 138/179/6
f 158/156/4 66/157/4 63/151/4
f 63/151/4 157/154/4 158/156/4
f 157/191/5 63/192/5 65/88/5
f 65/88/5 137/90/5 157/191/5
f 136/179/6 64/178/6 62/189/6
f 62/189/6 156/190/6 136/179/6
f 156/152/4 62/153/4 57/148/4
f 57/148/4 155/149/4 156/152/4
f 155/191/5 57/192/5 58/88/5
f 58/88/5 135/90/5 155/191/5
f 123/141/3 126/145/3 38/144/3
f 38/144/3 43/143/3 123/141/3
f 124/182/6 123/194/6 43/193/6
f 43/193/6 45/180/6 124/182/6
f 126/195/5 127/87/5 37/86/5
f 37/86/5 38/196/5 126/195/5
f 117/137/3 121/142/3 44/140/3
f 44/140/3 47/139/3 117/137/3
f 119/182/6 117/194/6 47/193/6
f 47/193/6 49/180/6 119/182/6
f 121/195/5 125/87/5 46/86/5
f 46/86/5 44/196/5 121/195/5
f 122/130/3 120/138/3 48/136/3
f 48/136/3 51/132/3 122/130/3
f 131/182/6 122/194/6 51/193/6
f 51/193/6 55/180/6 131/182/6
f 120/195/5 118/87/5 50/86/5
f 50/86/5 48/196/5 120/195/5
f 132/133/3 129/131/3 52/129/3
f 52/129/3 56/135/3 132/133/3
f 133/182/6 132/194/6 56/193/6
f 56/193/6 61/180/6 133/182/6
f 129/195/5 130/87/5 54/86/5
f 54/86/5 52/196/5 129/195/5
f 107/174/5 116/198/5 5/197/5
f 5/197/5 6/172/5 107/174/5
f 115/199/6 106/186/6 16/185/6
f 16/185/6 11/200/6 115/199/6
f 116/122/3 115/121/3 11/119/3
f 11/119/3 5/124/3 116/122/3
f 105/174/5 114/198/5 14/197/5
f 14/197/5 15/172/5 105/174/5
f 113/199/6 104/186/6 19/185/6
f 19/185/6 13/200/6 113/199/6
f 114/118/3 113/117/3 13/115/3
f 13/115/3 14/120/3 114/118/3
f 103/174/5 112/198/5 17/197/5
f 17/197/5 18/172/5 103/174/5
f 111/199/6 100/186/6 22/185/6
f 22/185/6 20/200/6 111/199/6
f 112/114/3 111/111/3 20/109/3
f 20/109/3 17/116/3 112/114/3
f 99/174/5 110/198/5 21/197/5
f 21/197/5 23/172/5 99/174/5
f 109/199/6 102/186/6 29/185/6
f 29/185/6 24/200/6 109/199/6
f 110/108/3 109/113/3 24/112/3
f 24/112/3 21/110/3 110/108/3
f 97/171/5 1/170/5 2/201/5
f 2/201/5 151/202/5 97/171/5
f 151/106/4 2/107/4 7/93/4
f 7/93/4 150/96/4 151/106/4
f 150/203/6 7/204/6 9/188/6
f 9/188/6 92/187/6 150/203/6
f 95/171/5 33/170/5 31/201/5
f 31/201/5 143/202/5 95/171/5
f 143/101/4 31/104/4 34/163/4
f 34/163/4 144/164/4 143/101/4
f 144/203/6 34/204/6 36/188/6
f 36/188/6 147/187/6 144/203/6
f 93/171/5 26/170/5 25/201/5
f 25/201/5 145/202/5 93/171/5
f 145/97/4 25/100/4 30/102/4
f 30/102/4 142/103/4 145/97/4
f 142/203/6 30/204/6 32/188/6
f 32/188/6 96/187/6 142/203/6
f 91/171/5 10/170/5 8/201/5
f 8/201/5 149/202/5 91/171/5
f 149/94/4 8/95/4 12/98/4
f 12/98/4 148/99/4 149/94/4
f 148/203/6 12/204/6 27/188/6
f 27/188/6 94/187/6 148/203/6
f 88/168/1 86/206/1 75/205/1
f 75/205/1 73/128/1 88/168/1
f 86/92/5 83/175/5 78/176/5
f 78/176/5 75/91/5 86/92/5
f 83/207/2 81/161/2 80/125/2
f 80/125/2 78/208/2 83/207/2

